<?xml version="1.0" encoding="UTF-8" standalone="no"?>
<svg width="240" height="60" viewBox="0 0 240 60" xmlns="http://www.w3.org/2000/svg">
  <!-- Enhanced Gradient Definitions -->
  <defs>
    <!-- Rose gold gradient for main text -->
    <linearGradient id="textGradient" x1="0%" y1="0%" x2="100%" y2="0%">
      <stop offset="0%" style="stop-color:#B76E79;stop-opacity:1" /> <!-- Rose Gold -->
      <stop offset="50%" style="stop-color:#E6BCB3;stop-opacity:1" /> <!-- Light Rose Gold -->
      <stop offset="100%" style="stop-color:#B76E79;stop-opacity:1" /> <!-- Rose Gold -->
    </linearGradient>
    
    <!-- Pearl gradient for "Vibes" -->
    <linearGradient id="vibesGradient" x1="0%" y1="0%" x2="100%" y2="0%">
      <stop offset="0%" style="stop-color:#E4D1D1;stop-opacity:1" /> <!-- Pearl -->
      <stop offset="50%" style="stop-color:#F0E4E4;stop-opacity:1" /> <!-- Light Pearl -->
      <stop offset="100%" style="stop-color:#E4D1D1;stop-opacity:1" /> <!-- Pearl -->
    </linearGradient>
    
    <!-- Metallic effect filter -->
    <filter id="metallicEffect" x="-50%" y="-50%" width="200%" height="200%">
      <feGaussianBlur in="SourceGraphic" stdDeviation="1" result="blur" />
      <feColorMatrix in="blur" type="matrix" values="1 0 0 0 0  0 1 0 0 0  0 0 1 0 0  0 0 0 15 -7" result="glow" />
      <feMerge>
        <feMergeNode in="glow" />
        <feMergeNode in="SourceGraphic" />
      </feMerge>
    </filter>
  </defs>
  
  <!-- Elegant Background Elements -->
  <path d="M0,30 Q120,25 240,30" stroke="#F0E4E4" stroke-width="15" fill="none" opacity="0.1" />
  
  <!-- Main Logo Text -->
  <g filter="url(#metallicEffect)">
    <!-- Glossy text with metallic styling -->
    <text x="15" y="38" font-family="'Cormorant Garamond', serif" font-size="44" font-weight="600" fill="url(#textGradient)" letter-spacing="2">
      Glossy
    </text>
    <!-- Vibes text with elegant script -->
    <text x="140" y="38" font-family="'Alex Brush', cursive" font-size="40" fill="url(#vibesGradient)">
      Vibes
    </text>
  </g>
  
  <!-- Decorative Elements -->
  <!-- Elegant swirl -->
  <path d="M10,45 Q120,50 230,45" stroke="#B76E79" stroke-width="1.5" fill="none" opacity="0.3">
    <animate attributeName="opacity" values="0.3;0.5;0.3" dur="3s" repeatCount="indefinite" />
  </path>
  
  <!-- Sparkles with soft colors -->
  <g>
    <!-- Animated elegant sparkles -->
    <g transform="translate(200,15)">
      <path d="M0,-3 L1,0 L4,1 L1,2 L0,5 L-1,2 L-4,1 L-1,0 Z" fill="#E6BCB3">
        <animate attributeName="opacity" values="1;0.4;1" dur="2s" repeatCount="indefinite" />
      </path>
    </g>
    <g transform="translate(215,20)">
      <path d="M0,-2 L0.5,0 L2.5,0.5 L0.5,1 L0,3 L-0.5,1 L-2.5,0.5 L-0.5,0 Z" fill="#B76E79">
        <animate attributeName="opacity" values="0.4;1;0.4" dur="2.5s" repeatCount="indefinite" />
      </path>
    </g>
    <g transform="translate(225,18)">
      <path d="M0,-2.5 L0.7,0 L3,0.7 L0.7,1.4 L0,4 L-0.7,1.4 L-3,0.7 L-0.7,0 Z" fill="#E4D1D1">
        <animate attributeName="opacity" values="0.6;1;0.6" dur="1.8s" repeatCount="indefinite" />
      </path>
    </g>
  </g>
  
  <!-- Beauty icon - Elegant mirror -->
  <g transform="translate(190,15)">
    <!-- Main mirror circle with gradient -->
    <circle cx="0" cy="0" r="10" fill="#E6BCB3" stroke="#B76E79" stroke-width="1" />
    <!-- Inner mirror surface -->
    <circle cx="0" cy="0" r="8" fill="#F0E4E4" stroke="#B76E79" stroke-width="0.5" opacity="0.8" />
    <!-- Decorative frame -->
    <circle cx="0" cy="0" r="9" fill="none" stroke="#B76E79" stroke-width="0.5" opacity="0.5" />
    <!-- Shine effect -->
    <path d="M-4,-4 A6,6 0 0,1 -1,-1" stroke="#FFFFFF" stroke-width="1" opacity="0.6" />
  </g>
</svg> 